ffmpeg started on 2025-05-28 at 10:50:50
Report written to "D:\Convert\FFMetrics\reports\ssim_report-6.txt"
Log level: 32
Command line:
ffmpeg -hide_banner -nostdin -i "G:\\\xc0\xed\xe8\xec\xe5\\\xce\xed\xe3\xee\xe8\xed\xe3\xe8\\!_36_\xce\xf1\xe5\xed\xfc_2024\\JamClub\\MF \xcf\xf0\xe8\xe7\xf0\xe0\xea\\\xd2\xc2-2\\[JamClub] MF Ghost 2 - 02_HEVC.mkv" -i "G:\\\xc0\xed\xe8\xec\xe5\\\xce\xed\xe3\xee\xe8\xed\xe3\xe8\\!_36_\xce\xf1\xe5\xed\xfc_2024\\JamClub\\MF \xcf\xf0\xe8\xe7\xf0\xe0\xea\\\xd2\xc2-2\\[JamClub] MF Ghost 2 - 02.mp4" -lavfi "[0:v]settb=AVTB,setpts=PTS-STARTPTS,format=pix_fmts=yuv420p10,fps=24000/1001,scale=1920:1080:flags=bicubic[main];[1:v]settb=AVTB,setpts=PTS-STARTPTS,format=pix_fmts=yuv420p,fps=24000/1001,scale=1920:1080:flags=bicubic[ref];[main][ref]ssim=eof_action=endall:stats_file='D\\:/Convert/FFMetrics/logs/ssim_logfile-6.txt'" -f null -
Input #0, matroska,webm, from 'G:\Аниме\Онгоинги\!_36_Осень_2024\JamClub\MF Призрак\ТВ-2\[JamClub] MF Ghost 2 - 02_HEVC.mkv':
  Metadata:
    COMPATIBLE_BRANDS: isomiso2avc1mp41
    MAJOR_BRAND     : isom
    MINOR_VERSION   : 512
    ENCODER         : Lavf61.7.100
  Duration: 00:24:02.37, start: -0.001000, bitrate: 2167 kb/s
  Stream #0:0: Video: hevc (Main 10), yuv420p10le(tv, bt709, progressive), 1920x1080 [SAR 1:1 DAR 16:9], 23.98 fps, 23.98 tbr, 1k tbn (default)
      Metadata:
        HANDLER_NAME    : VideoHandler
        VENDOR_ID       : [0][0][0][0]
        ENCODER         : Lavc61.19.100 libx265
        BPS             : 1968646
        DURATION        : 00:24:02.232708333
        NUMBER_OF_FRAMES: 34579
        NUMBER_OF_BYTES : 354905652
        _STATISTICS_WRITING_APP: mkvpropedit v66.0.0 ('Josie') 64-bit
        _STATISTICS_WRITING_DATE_UTC: 2025-05-27 11:26:54
        _STATISTICS_TAGS: BPS DURATION NUMBER_OF_FRAMES NUMBER_OF_BYTES
  Stream #0:1(eng): Audio: aac (LC), 48000 Hz, stereo, fltp (default)
      Metadata:
        HANDLER_NAME    : SoundHandler
        VENDOR_ID       : [0][0][0][0]
        ENCODER         : Lavc61.19.100 aac
        BPS             : 195233
        DURATION        : 00:24:02.328000000
        NUMBER_OF_FRAMES: 67610
        NUMBER_OF_BYTES : 35198844
        _STATISTICS_WRITING_APP: mkvpropedit v66.0.0 ('Josie') 64-bit
        _STATISTICS_WRITING_DATE_UTC: 2025-05-27 11:26:54
        _STATISTICS_TAGS: BPS DURATION NUMBER_OF_FRAMES NUMBER_OF_BYTES
Input #1, mov,mp4,m4a,3gp,3g2,mj2, from 'G:\Аниме\Онгоинги\!_36_Осень_2024\JamClub\MF Призрак\ТВ-2\[JamClub] MF Ghost 2 - 02.mp4':
  Metadata:
    major_brand     : isom
    minor_version   : 512
    compatible_brands: isomiso2avc1mp41
    encoder         : Lavf60.16.100
  Duration: 00:24:02.35, start: 0.000000, bitrate: 5466 kb/s
  Stream #1:0[0x1](und): Video: h264 (High) (avc1 / 0x31637661), yuv420p(progressive), 1920x1080 [SAR 1:1 DAR 16:9], 5269 kb/s, 23.98 fps, 23.98 tbr, 90k tbn (default)
      Metadata:
        handler_name    : VideoHandler
        vendor_id       : [0][0][0][0]
  Stream #1:1[0x2](eng): Audio: aac (LC) (mp4a / 0x6134706D), 48000 Hz, stereo, fltp, 191 kb/s (default)
      Metadata:
        handler_name    : SoundHandler
        vendor_id       : [0][0][0][0]
Stream mapping:
  Stream #0:0 (hevc) -> settb:default
  Stream #1:0 (h264) -> settb:default
  ssim:default -> Stream #0:0 (wrapped_avframe)
  Stream #0:1 -> #0:1 (aac (native) -> pcm_s16le (native))
Output #0, null, to 'pipe:':
  Metadata:
    COMPATIBLE_BRANDS: isomiso2avc1mp41
    MAJOR_BRAND     : isom
    MINOR_VERSION   : 512
    encoder         : Lavf61.7.100
  Stream #0:0: Video: wrapped_avframe, yuv420p10le(tv, bt709, progressive), 1920x1080 [SAR 1:1 DAR 16:9], q=2-31, 200 kb/s, 23.98 fps, 23.98 tbn
      Metadata:
        encoder         : Lavc61.19.100 wrapped_avframe
  Stream #0:1(eng): Audio: pcm_s16le, 48000 Hz, stereo, s16, 1536 kb/s (default)
      Metadata:
        HANDLER_NAME    : SoundHandler
        VENDOR_ID       : [0][0][0][0]
        _STATISTICS_TAGS: BPS DURATION NUMBER_OF_FRAMES NUMBER_OF_BYTES
        BPS             : 195233
        DURATION        : 00:24:02.328000000
        NUMBER_OF_FRAMES: 67610
        NUMBER_OF_BYTES : 35198844
        _STATISTICS_WRITING_APP: mkvpropedit v66.0.0 ('Josie') 64-bit
        _STATISTICS_WRITING_DATE_UTC: 2025-05-27 11:26:54
        encoder         : Lavc61.19.100 pcm_s16le
frame=  111 fps=0.0 q=-0.0 size=N/A time=00:00:04.62 bitrate=N/A speed=9.08x    frame=  270 fps=261 q=-0.0 size=N/A time=00:00:11.26 bitrate=N/A speed=10.9x    frame=  464 fps=300 q=-0.0 size=N/A time=00:00:19.35 bitrate=N/A speed=12.5x    frame=  646 fps=312 q=-0.0 size=N/A time=00:00:26.94 bitrate=N/A speed=  13x    frame=  814 fps=315 q=-0.0 size=N/A time=00:00:33.95 bitrate=N/A speed=13.2x    frame= 1076 fps=348 q=-0.0 size=N/A time=00:00:44.87 bitrate=N/A speed=14.5x    frame= 1275 fps=352 q=-0.0 size=N/A time=00:00:53.17 bitrate=N/A speed=14.7x    frame= 1468 fps=355 q=-0.0 size=N/A time=00:01:01.22 bitrate=N/A speed=14.8x    frame= 1644 fps=354 q=-0.0 size=N/A time=00:01:08.56 bitrate=N/A speed=14.8x    frame= 1790 fps=347 q=-0.0 size=N/A time=00:01:14.65 bitrate=N/A speed=14.5x    frame= 1980 fps=349 q=-0.0 size=N/A time=00:01:22.58 bitrate=N/A speed=14.6x    frame= 2168 fps=351 q=-0.0 size=N/A time=00:01:30.42 bitrate=N/A speed=14.6x    frame= 2302 fps=343 q=-0.0 size=N/A time=00:01:36.01 bitrate=N/A speed=14.3x    frame= 2565 fps=356 q=-0.0 size=N/A time=00:01:46.98 bitrate=N/A speed=14.8x    frame= 2714 fps=351 q=-0.0 size=N/A time=00:01:53.19 bitrate=N/A speed=14.6x    frame= 2952 fps=358 q=-0.0 size=N/A time=00:02:03.12 bitrate=N/A speed=14.9x    frame= 3167 fps=361 q=-0.0 size=N/A time=00:02:12.09 bitrate=N/A speed=15.1x    frame= 3391 fps=365 q=-0.0 size=N/A time=00:02:21.43 bitrate=N/A speed=15.2x    frame= 3621 fps=370 q=-0.0 size=N/A time=00:02:31.02 bitrate=N/A speed=15.4x    frame= 3845 fps=373 q=-0.0 size=N/A time=00:02:40.36 bitrate=N/A speed=15.5x    frame= 4090 fps=378 q=-0.0 size=N/A time=00:02:50.58 bitrate=N/A speed=15.8x    frame= 4323 fps=381 q=-0.0 size=N/A time=00:03:00.30 bitrate=N/A speed=15.9x    frame= 4514 fps=381 q=-0.0 size=N/A time=00:03:08.27 bitrate=N/A speed=15.9x    frame= 4743 fps=383 q=-0.0 size=N/A time=00:03:17.82 bitrate=N/A speed=  16x    frame= 4983 fps=387 q=-0.0 size=N/A time=00:03:27.83 bitrate=N/A speed=16.1x    frame= 5168 fps=385 q=-0.0 size=N/A time=00:03:35.54 bitrate=N/A speed=16.1x    frame= 5391 fps=387 q=-0.0 size=N/A time=00:03:44.84 bitrate=N/A speed=16.2x    frame= 5631 fps=390 q=-0.0 size=N/A time=00:03:54.85 bitrate=N/A speed=16.3x    frame= 5897 fps=394 q=-0.0 size=N/A time=00:04:05.95 bitrate=N/A speed=16.4x    frame= 6151 fps=398 q=-0.0 size=N/A time=00:04:16.54 bitrate=N/A speed=16.6x    frame= 6416 fps=401 q=-0.0 size=N/A time=00:04:27.60 bitrate=N/A speed=16.7x    frame= 6676 fps=405 q=-0.0 size=N/A time=00:04:38.44 bitrate=N/A speed=16.9x    frame= 6926 fps=407 q=-0.0 size=N/A time=00:04:48.87 bitrate=N/A speed=  17x    frame= 7183 fps=410 q=-0.0 size=N/A time=00:04:59.59 bitrate=N/A speed=17.1x    frame= 7409 fps=411 q=-0.0 size=N/A time=00:05:09.01 bitrate=N/A speed=17.1x    frame= 7642 fps=412 q=-0.0 size=N/A time=00:05:18.73 bitrate=N/A speed=17.2x    frame= 7901 fps=414 q=-0.0 size=N/A time=00:05:29.53 bitrate=N/A speed=17.3x    frame= 8135 fps=415 q=-0.0 size=N/A time=00:05:39.29 bitrate=N/A speed=17.3x    frame= 8337 fps=415 q=-0.0 size=N/A time=00:05:47.72 bitrate=N/A speed=17.3x    frame= 8477 fps=411 q=-0.0 size=N/A time=00:05:53.56 bitrate=N/A speed=17.1x    frame= 8640 fps=409 q=-0.0 size=N/A time=00:06:00.36 bitrate=N/A speed=  17x    frame= 8817 fps=407 q=-0.0 size=N/A time=00:06:07.74 bitrate=N/A speed=  17x    frame= 8997 fps=406 q=-0.0 size=N/A time=00:06:15.24 bitrate=N/A speed=16.9x    frame= 9180 fps=405 q=-0.0 size=N/A time=00:06:22.88 bitrate=N/A speed=16.9x    frame= 9366 fps=403 q=-0.0 size=N/A time=00:06:30.64 bitrate=N/A speed=16.8x    frame= 9552 fps=403 q=-0.0 size=N/A time=00:06:38.39 bitrate=N/A speed=16.8x    frame= 9727 fps=401 q=-0.0 size=N/A time=00:06:45.69 bitrate=N/A speed=16.7x    frame= 9885 fps=399 q=-0.0 size=N/A time=00:06:52.28 bitrate=N/A speed=16.7x    frame=10037 fps=397 q=-0.0 size=N/A time=00:06:58.62 bitrate=N/A speed=16.6x    frame=10204 fps=396 q=-0.0 size=N/A time=00:07:05.59 bitrate=N/A speed=16.5x    frame=10346 fps=393 q=-0.0 size=N/A time=00:07:11.51 bitrate=N/A speed=16.4x    frame=10480 fps=391 q=-0.0 size=N/A time=00:07:17.10 bitrate=N/A speed=16.3x    frame=10688 fps=391 q=-0.0 size=N/A time=00:07:25.77 bitrate=N/A speed=16.3x    frame=10962 fps=394 q=-0.0 size=N/A time=00:07:37.20 bitrate=N/A speed=16.4x    frame=11176 fps=394 q=-0.0 size=N/A time=00:07:46.13 bitrate=N/A speed=16.4x    frame=11418 fps=396 q=-0.0 size=N/A time=00:07:56.22 bitrate=N/A speed=16.5x    frame=11680 fps=397 q=-0.0 size=N/A time=00:08:07.15 bitrate=N/A speed=16.6x    frame=11905 fps=398 q=-0.0 size=N/A time=00:08:16.53 bitrate=N/A speed=16.6x    frame=12170 fps=400 q=-0.0 size=N/A time=00:08:27.59 bitrate=N/A speed=16.7x    frame=12420 fps=401 q=-0.0 size=N/A time=00:08:38.01 bitrate=N/A speed=16.7x    frame=12654 fps=402 q=-0.0 size=N/A time=00:08:47.77 bitrate=N/A speed=16.8x    frame=12899 fps=403 q=-0.0 size=N/A time=00:08:57.99 bitrate=N/A speed=16.8x    frame=13139 fps=404 q=-0.0 size=N/A time=00:09:08.00 bitrate=N/A speed=16.9x    frame=13391 fps=406 q=-0.0 size=N/A time=00:09:18.51 bitrate=N/A speed=16.9x    frame=13608 fps=406 q=-0.0 size=N/A time=00:09:27.56 bitrate=N/A speed=16.9x    frame=13813 fps=406 q=-0.0 size=N/A time=00:09:36.11 bitrate=N/A speed=16.9x    frame=14050 fps=407 q=-0.0 size=N/A time=00:09:46.00 bitrate=N/A speed=  17x    frame=14271 fps=407 q=-0.0 size=N/A time=00:09:55.21 bitrate=N/A speed=  17x    frame=14465 fps=407 q=-0.0 size=N/A time=00:10:03.31 bitrate=N/A speed=  17x    frame=14707 fps=408 q=-0.0 size=N/A time=00:10:13.40 bitrate=N/A speed=  17x    frame=14975 fps=409 q=-0.0 size=N/A time=00:10:24.58 bitrate=N/A speed=17.1x    frame=15216 fps=410 q=-0.0 size=N/A time=00:10:34.63 bitrate=N/A speed=17.1x    frame=15482 fps=411 q=-0.0 size=N/A time=00:10:45.72 bitrate=N/A speed=17.2x    frame=15739 fps=412 q=-0.0 size=N/A time=00:10:56.44 bitrate=N/A speed=17.2x    frame=16005 fps=414 q=-0.0 size=N/A time=00:11:07.54 bitrate=N/A speed=17.3x    frame=16240 fps=414 q=-0.0 size=N/A time=00:11:17.34 bitrate=N/A speed=17.3x    frame=16435 fps=414 q=-0.0 size=N/A time=00:11:25.47 bitrate=N/A speed=17.3x    frame=16658 fps=414 q=-0.0 size=N/A time=00:11:34.77 bitrate=N/A speed=17.3x    frame=16889 fps=414 q=-0.0 size=N/A time=00:11:44.41 bitrate=N/A speed=17.3x    frame=17112 fps=415 q=-0.0 size=N/A time=00:11:53.71 bitrate=N/A speed=17.3x    frame=17370 fps=416 q=-0.0 size=N/A time=00:12:04.47 bitrate=N/A speed=17.3x    frame=17615 fps=416 q=-0.0 size=N/A time=00:12:14.69 bitrate=N/A speed=17.4x    frame=17853 fps=417 q=-0.0 size=N/A time=00:12:24.61 bitrate=N/A speed=17.4x    frame=18061 fps=417 q=-0.0 size=N/A time=00:12:33.29 bitrate=N/A speed=17.4x    frame=18286 fps=417 q=-0.0 size=N/A time=00:12:42.67 bitrate=N/A speed=17.4x    frame=18498 fps=417 q=-0.0 size=N/A time=00:12:51.52 bitrate=N/A speed=17.4x    frame=18715 fps=417 q=-0.0 size=N/A time=00:13:00.57 bitrate=N/A speed=17.4x    frame=18930 fps=417 q=-0.0 size=N/A time=00:13:09.53 bitrate=N/A speed=17.4x    frame=19116 fps=416 q=-0.0 size=N/A time=00:13:17.29 bitrate=N/A speed=17.4x    frame=19341 fps=417 q=-0.0 size=N/A time=00:13:26.68 bitrate=N/A speed=17.4x    frame=19523 fps=416 q=-0.0 size=N/A time=00:13:34.27 bitrate=N/A speed=17.3x    frame=19713 fps=415 q=-0.0 size=N/A time=00:13:42.19 bitrate=N/A speed=17.3x    frame=19941 fps=416 q=-0.0 size=N/A time=00:13:51.70 bitrate=N/A speed=17.3x    frame=20161 fps=416 q=-0.0 size=N/A time=00:14:00.88 bitrate=N/A speed=17.3x    frame=20385 fps=416 q=-0.0 size=N/A time=00:14:10.22 bitrate=N/A speed=17.4x    frame=20590 fps=416 q=-0.0 size=N/A time=00:14:18.77 bitrate=N/A speed=17.3x    frame=20803 fps=416 q=-0.0 size=N/A time=00:14:27.65 bitrate=N/A speed=17.3x    frame=21030 fps=416 q=-0.0 size=N/A time=00:14:37.12 bitrate=N/A speed=17.4x    frame=21254 fps=416 q=-0.0 size=N/A time=00:14:46.46 bitrate=N/A speed=17.4x    frame=21410 fps=415 q=-0.0 size=N/A time=00:14:52.97 bitrate=N/A speed=17.3x    frame=21595 fps=415 q=-0.0 size=N/A time=00:15:00.69 bitrate=N/A speed=17.3x    frame=21758 fps=414 q=-0.0 size=N/A time=00:15:07.48 bitrate=N/A speed=17.2x    frame=21933 fps=413 q=-0.0 size=N/A time=00:15:14.78 bitrate=N/A speed=17.2x    frame=22100 fps=412 q=-0.0 size=N/A time=00:15:21.75 bitrate=N/A speed=17.2x    frame=22349 fps=413 q=-0.0 size=N/A time=00:15:32.13 bitrate=N/A speed=17.2x    frame=22589 fps=413 q=-0.0 size=N/A time=00:15:42.14 bitrate=N/A speed=17.2x    frame=22793 fps=413 q=-0.0 size=N/A time=00:15:50.65 bitrate=N/A speed=17.2x    frame=22992 fps=413 q=-0.0 size=N/A time=00:15:58.95 bitrate=N/A speed=17.2x    frame=23206 fps=413 q=-0.0 size=N/A time=00:16:07.88 bitrate=N/A speed=17.2x    frame=23431 fps=413 q=-0.0 size=N/A time=00:16:17.26 bitrate=N/A speed=17.2x    frame=23640 fps=413 q=-0.0 size=N/A time=00:16:25.98 bitrate=N/A speed=17.2x    frame=23868 fps=413 q=-0.0 size=N/A time=00:16:35.49 bitrate=N/A speed=17.2x    frame=24056 fps=413 q=-0.0 size=N/A time=00:16:43.33 bitrate=N/A speed=17.2x    frame=24264 fps=413 q=-0.0 size=N/A time=00:16:52.01 bitrate=N/A speed=17.2x    frame=24446 fps=412 q=-0.0 size=N/A time=00:16:59.60 bitrate=N/A speed=17.2x    frame=24661 fps=412 q=-0.0 size=N/A time=00:17:08.56 bitrate=N/A speed=17.2x    frame=24910 fps=413 q=-0.0 size=N/A time=00:17:18.95 bitrate=N/A speed=17.2x    frame=25120 fps=413 q=-0.0 size=N/A time=00:17:27.71 bitrate=N/A speed=17.2x    frame=25350 fps=413 q=-0.0 size=N/A time=00:17:37.30 bitrate=N/A speed=17.2x    frame=25545 fps=413 q=-0.0 size=N/A time=00:17:45.43 bitrate=N/A speed=17.2x    frame=25753 fps=413 q=-0.0 size=N/A time=00:17:54.11 bitrate=N/A speed=17.2x    frame=25945 fps=412 q=-0.0 size=N/A time=00:18:02.12 bitrate=N/A speed=17.2x    frame=26148 fps=412 q=-0.0 size=N/A time=00:18:10.58 bitrate=N/A speed=17.2x    frame=26372 fps=412 q=-0.0 size=N/A time=00:18:19.93 bitrate=N/A speed=17.2x    frame=26589 fps=412 q=-0.0 size=N/A time=00:18:28.98 bitrate=N/A speed=17.2x    frame=26784 fps=412 q=-0.0 size=N/A time=00:18:37.11 bitrate=N/A speed=17.2x    frame=26960 fps=412 q=-0.0 size=N/A time=00:18:44.45 bitrate=N/A speed=17.2x    frame=27153 fps=411 q=-0.0 size=N/A time=00:18:52.50 bitrate=N/A speed=17.2x    frame=27387 fps=412 q=-0.0 size=N/A time=00:19:02.26 bitrate=N/A speed=17.2x    frame=27579 fps=411 q=-0.0 size=N/A time=00:19:10.27 bitrate=N/A speed=17.2x    frame=27781 fps=411 q=-0.0 size=N/A time=00:19:18.69 bitrate=N/A speed=17.1x    frame=27968 fps=411 q=-0.0 size=N/A time=00:19:26.49 bitrate=N/A speed=17.1x    frame=28195 fps=411 q=-0.0 size=N/A time=00:19:35.96 bitrate=N/A speed=17.1x    frame=28380 fps=411 q=-0.0 size=N/A time=00:19:43.68 bitrate=N/A speed=17.1x    frame=28559 fps=410 q=-0.0 size=N/A time=00:19:51.14 bitrate=N/A speed=17.1x    frame=28768 fps=410 q=-0.0 size=N/A time=00:19:59.86 bitrate=N/A speed=17.1x    frame=28977 fps=410 q=-0.0 size=N/A time=00:20:08.58 bitrate=N/A speed=17.1x    frame=29181 fps=410 q=-0.0 size=N/A time=00:20:17.09 bitrate=N/A speed=17.1x    frame=29352 fps=409 q=-0.0 size=N/A time=00:20:24.22 bitrate=N/A speed=17.1x    frame=29540 fps=409 q=-0.0 size=N/A time=00:20:32.06 bitrate=N/A speed=17.1x    frame=29710 fps=408 q=-0.0 size=N/A time=00:20:39.15 bitrate=N/A speed=  17x    frame=29912 fps=408 q=-0.0 size=N/A time=00:20:47.62 bitrate=N/A speed=  17x    frame=30127 fps=408 q=-0.0 size=N/A time=00:20:56.54 bitrate=N/A speed=  17x    frame=30350 fps=408 q=-0.0 size=N/A time=00:21:05.84 bitrate=N/A speed=  17x    frame=30549 fps=408 q=-0.0 size=N/A time=00:21:14.14 bitrate=N/A speed=  17x    frame=30770 fps=408 q=-0.0 size=N/A time=00:21:23.36 bitrate=N/A speed=  17x    frame=30989 fps=409 q=-0.0 size=N/A time=00:21:32.49 bitrate=N/A speed=  17x    frame=31194 fps=408 q=-0.0 size=N/A time=00:21:41.04 bitrate=N/A speed=  17x    frame=31393 fps=408 q=-0.0 size=N/A time=00:21:49.34 bitrate=N/A speed=  17x    frame=31610 fps=408 q=-0.0 size=N/A time=00:21:58.40 bitrate=N/A speed=  17x    frame=31795 fps=408 q=-0.0 size=N/A time=00:22:06.11 bitrate=N/A speed=  17x    frame=32010 fps=408 q=-0.0 size=N/A time=00:22:15.08 bitrate=N/A speed=  17x    frame=32203 fps=408 q=-0.0 size=N/A time=00:22:23.13 bitrate=N/A speed=  17x    frame=32426 fps=408 q=-0.0 size=N/A time=00:22:32.43 bitrate=N/A speed=  17x    frame=32645 fps=408 q=-0.0 size=N/A time=00:22:41.56 bitrate=N/A speed=  17x    frame=32852 fps=408 q=-0.0 size=N/A time=00:22:50.20 bitrate=N/A speed=  17x    frame=33015 fps=408 q=-0.0 size=N/A time=00:22:57.00 bitrate=N/A speed=  17x    frame=33237 fps=408 q=-0.0 size=N/A time=00:23:06.25 bitrate=N/A speed=  17x    frame=33442 fps=408 q=-0.0 size=N/A time=00:23:14.81 bitrate=N/A speed=  17x    frame=33677 fps=408 q=-0.0 size=N/A time=00:23:24.61 bitrate=N/A speed=  17x    frame=33886 fps=408 q=-0.0 size=N/A time=00:23:33.32 bitrate=N/A speed=  17x    frame=34101 fps=408 q=-0.0 size=N/A time=00:23:42.29 bitrate=N/A speed=  17x    frame=34318 fps=408 q=-0.0 size=N/A time=00:23:51.34 bitrate=N/A speed=  17x    frame=34530 fps=408 q=-0.0 size=N/A time=00:24:00.18 bitrate=N/A speed=  17x    [Parsed_ssim_10 @ 000002b23f922040] SSIM Y:0.992230 (21.095604) U:0.994967 (22.982156) V:0.994859 (22.889332) All:0.993124 (21.626740)
[out#0/null @ 000002b234f41040] video:14858KiB audio:270440KiB subtitle:0KiB other streams:0KiB global headers:0KiB muxing overhead: unknown
frame=34579 fps=408 q=-0.0 Lsize=N/A time=00:24:02.23 bitrate=N/A speed=  17x    
